<svg xmlns="http://www.w3.org/2000/svg" xmlns:xlink="http://www.w3.org/1999/xlink" aria-hidden="true" role="img" class="iconify iconify--logos" width="31.88" height="32" preserveAspectRatio="xMidYMid meet" viewBox="0 0 256 257">
  <path fill="#41D1FF" d="M128 0l35 39l35 39l35 39l17 32l-17 32l-35 39l-35 39l-35 39l-35-39l-35-39L22 128l17-32l35-39l35-39L128 0z"/>
  <path fill="#FF2D20" d="M128 0l35 39l35 39l35 39l17 32l-17 32l-35 39l-35 39l-35 39l-35-39l-35-39L22 128l17-32l35-39l35-39L128 0z"/>
  <path fill="#FF2D20" d="M0 128l35 39l35 39l35 39l35-39l35-39l35-39l35-39l17-32l-17-32l-35-39l-35-39l-35-39L128 0L0 128z"/>
  <path fill="#F5A623" d="M0 128l35 39l35 39l35 39l35-39l35-39l35-39l35-39l17-32l-17-32l-35-39l-35-39l-35-39L128 0L0 128z"/>
</svg>